<?xml version="1.0" standalone="no"?>
<!DOCTYPE svg PUBLIC "-//W3C//DTD SVG 20010904//EN"
 "http://www.w3.org/TR/2001/REC-SVG-20010904/DTD/svg10.dtd">
<svg version="1.0" xmlns="http://www.w3.org/2000/svg"
 width="1280.000000pt" height="989.000000pt" viewBox="0 0 1280.000000 989.000000"
 preserveAspectRatio="xMidYMid meet">
<metadata>
Created by potrace 1.16, written by Peter Selinger 2001-2019
</metadata>
<g transform="translate(0.000000,989.000000) scale(0.100000,-0.100000)"
fill="#000000" stroke="none">
<path d="M370 4945 l0 -4685 6030 0 6030 0 0 4685 0 4685 -6030 0 -6030 0 0
-4685z m6120 3366 c14 -10 61 -33 105 -52 115 -50 187 -100 291 -203 97 -96
133 -155 159 -252 11 -44 26 -69 65 -110 81 -85 106 -164 81 -251 -7 -25 -4
-41 15 -79 27 -52 33 -157 14 -226 -16 -57 -70 -130 -124 -166 -47 -31 -51
-38 -69 -105 -25 -94 -24 -254 1 -273 9 -7 74 -36 145 -64 l127 -51 30 21 c53
38 134 67 229 84 143 24 238 20 398 -20 59 -15 65 -14 130 6 85 27 221 36 292
21 30 -6 56 -10 58 -7 5 5 -71 243 -104 324 -27 67 -90 166 -126 200 -32 30
-124 33 -163 5 -43 -30 -98 -45 -157 -42 -33 1 -67 -4 -91 -15 -73 -33 -176 6
-240 89 -18 24 -47 56 -65 70 -69 58 -76 116 -36 283 46 189 55 194 365 200
249 5 389 -9 532 -52 88 -27 134 -57 238 -153 41 -39 149 -132 240 -208 91
-77 209 -180 264 -229 220 -202 341 -414 380 -666 10 -58 26 -134 37 -170 40
-130 -9 -222 -151 -281 -85 -35 -127 -65 -226 -160 -103 -97 -200 -152 -328
-183 -48 -12 -82 -28 -112 -52 -40 -33 -184 -104 -211 -104 -19 0 -17 -5 33
-83 53 -81 159 -290 197 -387 81 -204 142 -451 169 -680 4 -29 -11 -30 218 11
91 16 179 31 195 34 18 3 39 0 48 -8 18 -12 36 -96 152 -717 8 -41 48 -253 90
-470 94 -490 96 -501 89 -522 -7 -24 -54 -35 -364 -87 -114 -19 -151 -25 -390
-61 -118 -18 -449 -61 -571 -75 -54 -6 -57 -8 -150 -102 -530 -538 -1304 -812
-2055 -728 -322 36 -600 120 -884 266 -238 124 -411 249 -610 444 l-115 113
-70 6 c-235 22 -690 88 -1085 157 -278 49 -270 43 -247 161 9 46 32 169 52
273 20 105 42 222 50 260 8 39 30 156 50 260 20 105 51 271 70 370 19 99 46
238 59 310 27 141 38 159 91 150 16 -3 104 -18 195 -34 91 -17 176 -31 190
-33 24 -3 25 -1 41 113 51 356 178 705 364 994 19 31 35 57 35 59 0 3 -24 12
-52 22 -72 23 -127 51 -164 84 -32 27 -53 36 -194 81 -92 29 -196 97 -275 179
-70 73 -111 100 -198 135 -118 47 -170 112 -168 209 0 28 7 70 15 93 8 24 20
78 26 122 23 168 77 309 176 458 88 132 142 183 767 721 80 69 121 90 235 118
160 40 237 46 479 42 210 -4 231 -6 269 -26 42 -21 84 -85 84 -126 0 -10 10
-49 21 -88 15 -49 20 -87 17 -128 -4 -51 -9 -65 -44 -105 -77 -91 -111 -121
-177 -154 -54 -28 -74 -33 -107 -28 -23 3 -49 12 -58 20 -12 11 -31 13 -68 10
-57 -6 -113 9 -158 40 -22 16 -43 20 -85 18 -52 -1 -59 -5 -94 -43 -47 -52
-100 -144 -126 -223 -50 -146 -91 -278 -88 -282 2 -1 28 1 57 7 75 14 154 12
235 -6 117 -26 154 -27 262 -5 55 12 135 21 177 21 139 0 291 -43 372 -105
l32 -25 58 20 c56 20 138 58 201 96 31 18 32 20 35 104 3 51 -1 103 -9 130 -7
25 -15 61 -18 81 -4 29 -14 41 -54 67 -94 61 -141 153 -141 275 1 55 6 83 25
121 18 37 21 54 14 73 -26 68 -7 138 65 238 20 27 36 59 36 70 0 32 35 146 60
195 31 61 113 145 191 196 78 51 188 107 244 124 22 7 57 23 77 37 67 45 155
51 208 14z"/>
<path d="M6326 8265 c-21 -14 -74 -39 -119 -57 -270 -104 -400 -232 -442 -437
-11 -51 -25 -88 -49 -120 -67 -93 -81 -149 -52 -216 11 -27 10 -34 -10 -65
-54 -83 -52 -192 6 -283 26 -41 90 -95 133 -110 12 -5 17 -17 17 -47 0 -22 8
-61 18 -87 13 -38 16 -72 14 -159 l-4 -111 -121 -61 c-67 -34 -145 -68 -174
-76 l-51 -14 -59 38 c-124 80 -312 109 -488 74 -117 -23 -191 -23 -295 0 -106
24 -219 17 -319 -17 -39 -14 -71 -23 -71 -21 0 3 13 30 29 62 28 56 77 193
101 282 37 141 180 354 226 336 10 -4 42 -2 72 5 52 10 55 10 80 -14 38 -37
78 -49 147 -45 44 2 66 -2 85 -15 38 -27 82 -21 150 19 60 36 100 75 100 99 0
6 11 17 24 24 50 27 62 95 32 189 -8 26 -17 65 -21 87 -9 52 -30 92 -57 106
-30 16 -340 26 -485 16 -141 -9 -330 -56 -386 -94 -22 -15 -72 -58 -111 -94
-39 -36 -150 -132 -246 -214 -96 -82 -213 -184 -260 -226 -213 -190 -326 -389
-369 -648 -12 -68 -28 -144 -37 -169 -23 -68 -11 -115 40 -167 23 -23 55 -45
69 -49 74 -18 146 -65 242 -156 113 -107 186 -151 299 -180 84 -21 108 -32
150 -67 42 -35 111 -68 196 -93 41 -12 76 -23 78 -25 2 -2 -19 -36 -46 -76
-27 -41 -58 -90 -69 -109 -183 -327 -278 -609 -318 -944 -8 -65 -16 -121 -19
-123 -6 -6 -273 38 -443 73 -18 3 -33 3 -33 -2 0 -14 -24 -142 -105 -564 -42
-217 -82 -429 -90 -470 -7 -41 -36 -194 -64 -339 -28 -146 -49 -266 -47 -269
18 -17 761 -137 1099 -177 72 -9 167 -20 211 -25 l79 -9 86 -88 c376 -384 824
-617 1371 -714 170 -31 585 -34 755 -6 203 33 417 92 575 159 317 134 562 298
810 541 l115 113 155 18 c311 35 831 114 1110 167 94 18 93 17 86 53 -4 17
-39 195 -77 396 -68 354 -85 443 -114 600 -8 41 -37 194 -65 338 -27 145 -50
268 -50 274 0 6 -11 8 -27 4 -67 -14 -445 -77 -448 -74 -2 2 -13 71 -24 153
-54 386 -196 760 -399 1048 -18 27 -31 51 -29 53 2 3 33 12 68 21 77 19 147
53 214 103 34 25 72 42 120 53 119 29 204 77 317 183 85 80 118 103 202 144
56 26 111 59 123 72 35 38 45 95 28 159 -9 30 -20 83 -26 119 -36 215 -99 373
-206 515 -73 96 -166 186 -373 360 -84 72 -194 166 -243 210 -195 174 -199
177 -357 216 -89 22 -115 23 -380 24 -365 0 -338 14 -386 -197 -22 -100 -23
-110 -9 -145 9 -21 27 -46 41 -54 14 -9 42 -38 63 -65 62 -82 146 -115 200
-78 16 11 47 17 105 18 75 1 86 4 122 31 37 28 43 30 114 27 86 -4 97 -11 165
-107 59 -83 90 -149 120 -252 32 -110 69 -211 106 -285 l29 -57 -54 24 c-118
52 -279 58 -406 14 l-63 -21 -86 21 c-224 54 -441 32 -586 -60 l-50 -32 -50
18 c-67 23 -233 95 -268 116 -28 16 -28 17 -29 130 -1 70 3 123 10 136 7 12
15 49 19 82 6 59 7 61 49 81 124 60 187 239 126 357 -12 23 -26 44 -32 48 -6
4 -5 17 5 35 21 40 19 113 -4 158 -10 20 -41 60 -68 87 -40 41 -51 62 -66 119
-10 38 -33 92 -51 120 -73 114 -225 237 -371 301 -38 16 -86 40 -106 53 -48
29 -97 28 -143 -3z m182 -151 c18 -12 22 -23 22 -70 0 -35 -5 -56 -12 -59 -7
-2 -69 -5 -138 -7 l-125 -4 5 76 5 75 45 6 c63 10 171 0 198 -17z m-174 -499
l68 -24 48 19 c27 11 72 22 102 25 l53 5 -56 -20 c-31 -11 -69 -34 -84 -50
-30 -31 -24 -37 19 -20 19 7 24 6 20 -4 -4 -10 16 -12 97 -8 119 6 155 -7 183
-64 28 -61 24 -69 -48 -81 -36 -6 -92 -25 -125 -42 -66 -33 -89 -32 -125 7
-18 21 -18 57 1 110 5 14 3 15 -8 4 -7 -7 -20 -31 -29 -55 -14 -38 -19 -42
-50 -42 -32 0 -36 4 -62 58 -15 31 -29 57 -32 57 -2 0 3 -22 11 -50 17 -58 8
-82 -38 -105 -28 -15 -33 -14 -92 15 -34 16 -88 36 -119 42 -53 11 -60 10 -85
-8 -15 -11 -29 -27 -31 -35 -4 -11 -2 -12 9 -1 21 20 25 15 24 -35 l0 -48 64
-15 64 -15 -42 -28 c-52 -35 -53 -43 -1 -17 43 22 47 19 25 -20 -8 -14 -14
-42 -15 -64 0 -37 -1 -38 -27 -31 -59 14 -115 94 -106 151 3 17 -2 48 -11 68
-23 54 -20 107 9 172 20 45 22 55 9 50 -36 -14 -4 19 47 48 49 28 62 31 146
31 98 0 105 8 27 30 l-49 13 70 1 c50 0 90 -6 139 -24z m-1144 -55 c11 -6 22
-26 25 -48 3 -20 13 -65 22 -100 12 -50 13 -65 3 -77 -7 -8 -18 -15 -24 -15
-15 0 -55 123 -58 180 -3 44 -4 45 -38 48 -32 3 -34 2 -16 -11 13 -10 26 -42
38 -98 32 -146 31 -144 13 -163 -27 -27 -42 -5 -66 102 -27 121 -33 132 -67
131 l-27 0 23 -16 c14 -10 22 -26 22 -43 0 -15 9 -57 20 -94 23 -72 19 -112
-12 -122 -30 -9 -36 3 -54 101 -10 52 -26 102 -37 117 -11 15 -22 27 -23 25
-2 -1 8 -54 21 -117 22 -103 23 -116 9 -130 -14 -13 -17 -13 -29 4 -8 11 -22
43 -30 73 -9 30 -22 56 -30 60 -8 3 -48 -3 -88 -13 -104 -26 -162 -24 -229 9
-30 15 -59 27 -64 27 -5 0 -15 14 -21 30 -10 26 -16 30 -52 30 -47 0 -58 11
-33 33 16 14 140 50 262 75 62 13 516 15 540 2z m3085 -28 c61 -17 114 -32
119 -32 4 0 56 -46 115 -103 58 -57 162 -150 231 -207 347 -289 439 -387 519
-552 58 -121 59 -128 21 -128 -19 0 -58 -16 -97 -40 -59 -35 -74 -40 -127 -40
-134 0 -252 47 -329 129 -80 86 -100 142 -152 436 -46 256 -72 314 -164 354
-28 11 -57 31 -66 44 -12 17 -18 19 -24 9 -4 -7 -12 -12 -17 -10 -5 1 -25 -14
-45 -35 -29 -29 -45 -37 -72 -37 -61 0 -289 97 -307 131 -6 10 -28 19 -55 24
-37 5 -44 9 -35 19 13 16 -14 25 -75 26 -35 1 -38 2 -22 14 27 21 21 24 -30
15 -49 -10 -67 -4 -43 12 9 6 117 8 280 6 260 -4 267 -5 375 -35z m-3926 -281
c10 -17 5 -46 -15 -96 -7 -18 -6 -18 30 3 20 12 39 22 42 22 2 0 -11 -20 -30
-45 -49 -64 -76 -144 -91 -270 -26 -223 -124 -428 -229 -482 -17 -9 -58 -18
-92 -21 -54 -4 -69 -1 -106 21 -104 61 -161 147 -161 242 0 87 31 141 149 255
113 109 399 361 429 378 30 17 63 14 74 -7z m1973 -68 l81 -27 76 27 c96 34
134 35 166 2 24 -24 35 -52 15 -40 -7 4 -7 -3 0 -20 25 -65 -6 -135 -58 -135
l-27 1 23 19 c12 10 25 32 28 49 5 25 1 36 -24 61 -36 36 -64 38 -109 8 -40
-28 -58 -74 -43 -113 8 -21 13 -25 24 -16 24 20 75 -8 138 -74 15 -16 28 -37
28 -46 0 -15 -5 -16 -35 -8 -20 6 -50 9 -68 7 -29 -3 -27 -5 28 -22 67 -20
130 -50 140 -67 4 -6 -5 -4 -21 4 -16 7 -58 22 -94 33 -91 26 -300 26 -385 0
-74 -23 -143 -57 -183 -91 -17 -14 -33 -21 -36 -16 -9 14 24 113 52 154 14 21
39 48 55 59 42 30 218 80 234 66 10 -8 15 -3 23 18 17 43 3 79 -40 109 -46 32
-88 28 -120 -12 -27 -34 -25 -55 6 -92 l26 -31 -25 0 c-48 0 -79 70 -59 130 7
18 7 28 2 25 -20 -12 -9 17 15 40 31 32 65 32 167 -2z m233 -388 c68 -18 157
-58 175 -80 8 -10 -7 -6 -41 10 -30 13 -73 27 -96 31 l-42 6 20 -51 c31 -83
20 -144 -40 -220 -39 -49 -31 -51 33 -10 27 16 50 28 52 26 2 -2 -12 -25 -32
-50 -36 -47 -117 -107 -169 -127 -50 -19 -135 22 -210 99 -45 47 -59 52 -45
16 14 -38 -4 -31 -55 19 -50 51 -95 132 -95 174 0 49 90 113 210 148 92 28
245 32 335 9z m-602 -335 c51 -79 42 -115 -38 -151 -48 -22 -113 -24 -159 -5
-39 16 -48 37 -38 84 6 29 18 39 97 82 50 27 92 49 95 49 3 0 22 -27 43 -59z
m1039 6 c57 -29 140 -68 185 -86 45 -18 80 -38 76 -43 -3 -5 -62 -8 -137 -7
-176 4 -171 5 -213 -34 -48 -42 -87 -61 -141 -70 -48 -7 -74 3 -97 38 -14 21
-14 27 0 62 9 22 36 55 59 74 24 19 56 52 71 72 16 21 31 36 33 33 3 -3 -9
-33 -27 -68 l-32 -62 39 39 c22 21 48 53 58 72 10 19 20 34 21 34 1 0 48 -24
105 -54z m-2319 -17 c79 -26 145 -71 194 -132 59 -71 86 -131 79 -171 -11 -56
-67 -63 -297 -37 -109 12 -227 49 -276 87 -64 49 -105 173 -70 216 10 14 73
38 132 51 58 13 179 6 238 -14z m445 10 c59 11 102 8 157 -11 52 -19 115 -51
115 -60 0 -4 -33 -8 -72 -8 -40 -1 -86 -7 -103 -15 -28 -12 -21 -13 85 -14
168 -2 253 -32 345 -125 60 -60 100 -135 91 -171 -7 -29 -59 -58 -142 -80
-151 -39 -3 -30 179 11 51 12 67 20 63 30 -4 10 3 14 28 14 20 0 40 8 50 19
15 17 16 20 1 35 -9 8 -48 25 -87 36 -67 20 -118 55 -118 81 0 7 7 8 18 4 33
-13 228 -35 314 -35 92 0 112 -9 76 -34 -22 -16 -22 -16 9 -16 18 0 53 7 79
16 36 12 53 13 71 5 43 -20 44 -12 3 69 -37 75 -38 94 -3 72 27 -17 103 -212
103 -264 0 -10 -11 -25 -24 -33 -21 -14 -37 -14 -165 1 -91 11 -148 14 -162 8
-16 -8 14 -19 146 -53 165 -44 191 -59 126 -72 -43 -9 -51 -19 -15 -19 16 0
43 -9 60 -19 30 -18 31 -21 37 -117 20 -295 3 -365 -108 -451 l-44 -35 -153 4
c-84 3 -161 8 -170 12 -10 5 -18 17 -18 29 0 53 -92 81 -123 37 -19 -28 -53
-14 -112 44 -57 57 -58 71 -5 62 54 -9 51 7 -5 22 -44 12 -75 47 -75 85 0 8
-16 39 -35 68 -41 59 -45 52 59 105 37 19 66 38 63 40 -3 3 -62 -2 -131 -11
l-126 -16 -28 32 c-15 18 -57 81 -94 140 l-66 108 36 6 c43 7 90 24 97 35 2 4
-39 33 -91 66 -183 113 -209 151 -140 212 l34 30 -30 6 c-17 3 -43 6 -59 6
-31 0 -79 19 -79 31 0 4 -9 11 -21 14 -19 6 -16 10 27 41 36 26 50 31 61 23
10 -9 28 -9 71 0z m2787 -15 c39 -8 73 -14 78 -14 4 0 7 -4 7 -8 0 -17 -171
-207 -247 -275 -43 -38 -80 -74 -82 -80 -2 -7 -14 -23 -27 -38 -13 -14 -37
-63 -53 -110 -16 -47 -40 -104 -55 -127 -25 -40 -28 -42 -77 -42 -29 0 -96 7
-151 16 -54 8 -104 14 -110 12 -6 -2 25 -23 70 -46 68 -36 102 -64 102 -84 0
-2 -18 -23 -39 -47 -22 -24 -45 -57 -52 -74 -9 -21 -29 -37 -73 -58 -57 -27
-58 -29 -23 -24 21 4 45 9 53 12 21 8 17 -11 -12 -72 -31 -62 -87 -120 -126
-129 -24 -5 -28 -3 -28 16 0 34 -29 58 -70 58 -45 0 -75 -28 -68 -65 5 -25 4
-25 -61 -25 -83 0 -224 23 -276 44 -93 39 -110 79 -130 290 -14 161 -14 167 5
219 34 91 69 117 189 146 46 11 86 23 90 27 3 4 -58 4 -136 0 l-143 -6 0 39
c0 22 -7 52 -16 68 -16 27 -15 31 24 115 39 85 42 87 102 118 71 36 70 33 -25
-75 -59 -66 -81 -95 -71 -95 3 0 17 5 33 11 15 6 114 17 218 24 105 8 216 17
248 21 l59 7 -4 -29 c-3 -26 -10 -32 -86 -59 -133 -48 -136 -91 -6 -79 68 6
74 4 150 -32 78 -38 80 -39 194 -39 186 1 207 31 55 80 -124 39 -157 83 -120
155 14 27 71 78 126 112 52 33 139 51 213 45 72 -6 77 2 15 22 -29 9 -36 16
-32 31 6 23 42 57 68 62 35 8 227 -4 300 -18z m506 10 c53 -16 104 -41 184
-89 22 -14 52 -25 67 -25 19 0 45 -16 81 -47 29 -27 67 -58 83 -70 l29 -22
-27 0 c-19 -1 -39 12 -69 44 -24 25 -46 45 -51 45 -4 0 -10 -16 -14 -35 -6
-35 -29 -63 -41 -51 -3 3 -7 21 -7 40 -2 49 -11 52 -37 17 -72 -98 -202 -137
-484 -148 -143 -5 -176 -3 -208 10 -20 9 -40 22 -43 30 -9 24 35 124 76 173
50 61 108 99 184 124 77 24 203 26 277 4z m-4286 -229 c21 -47 35 -88 32 -91
-2 -3 -45 -8 -95 -11 -81 -5 -95 -3 -133 16 -53 28 -89 71 -59 71 26 0 123 45
162 74 24 19 46 32 49 30 3 -1 23 -42 44 -89z m5245 6 c0 -34 -18 -69 -45 -87
-45 -29 -116 -43 -171 -33 -88 17 -96 60 -14 74 22 4 77 19 122 35 102 34 108
35 108 11z m-5133 -181 c63 -55 140 -89 252 -112 95 -19 206 -64 276 -111 l37
-25 -34 -10 c-184 -59 -287 -61 -453 -8 -130 41 -176 107 -119 167 l26 27 -52
7 c-45 6 -49 9 -38 23 11 13 10 15 -12 9 -14 -3 -78 -11 -143 -18 -97 -10
-122 -10 -143 1 -13 8 -23 21 -22 29 3 13 29 19 126 28 67 7 137 17 154 22 68
19 97 13 145 -29z m4848 29 c12 -18 9 -79 -4 -92 -16 -16 -154 -11 -217 8 -42
13 -84 40 -84 54 0 4 26 8 58 9 31 1 80 8 107 16 61 17 131 20 140 5z m-457
-123 c29 -8 60 -20 68 -26 19 -17 18 -54 -4 -73 -47 -43 -238 -109 -352 -121
-103 -12 -330 39 -330 73 0 17 85 82 146 112 47 23 83 32 150 38 145 13 265
12 322 -3z m-568 -1 c0 -22 -282 -92 -322 -79 -25 8 -23 36 5 54 29 18 317 42
317 25z m-2938 -307 c31 -47 31 -68 3 -134 -22 -51 -32 -64 -49 -64 -47 1 -89
66 -84 133 2 34 9 45 37 64 43 29 75 29 93 1z m2647 -13 c38 -44 46 -70 46
-166 0 -82 -17 -119 -56 -119 -29 0 -44 36 -69 163 -22 113 -22 118 -5 137 26
29 49 25 84 -15z m-148 -98 c26 -17 39 -37 56 -87 28 -85 28 -105 -2 -157 -30
-51 -74 -77 -115 -68 -39 9 -56 38 -69 122 -18 119 -15 150 18 184 35 35 66
37 112 6z m-2327 2 c27 -13 52 -64 61 -124 7 -54 -37 -214 -66 -237 -27 -23
-44 -23 -85 3 -100 61 -121 291 -32 353 26 19 86 21 122 5z m-418 -121 c0
-212 68 -353 276 -574 80 -85 86 -95 93 -145 17 -124 91 -312 174 -444 47 -74
61 -120 49 -157 -14 -41 -61 -52 -182 -44 -270 19 -708 65 -1005 106 -80 11
-146 20 -148 20 -15 0 15 239 48 375 69 293 183 545 366 806 l74 106 52 6 c29
3 84 17 122 30 39 13 72 25 75 26 3 0 6 -50 6 -111z m3246 55 l57 -6 54 -76
c229 -319 357 -625 417 -996 17 -102 26 -215 18 -215 -2 0 -70 -9 -153 -21
-349 -47 -776 -91 -1015 -105 -108 -6 -117 -5 -142 16 -46 35 -39 76 35 205
86 152 114 218 146 348 15 62 33 123 40 136 7 13 53 66 101 117 99 105 154
183 187 265 42 103 57 180 58 284 l0 100 70 -23 c39 -13 96 -26 127 -29z
m-705 -145 c11 -14 35 -99 58 -198 20 -86 30 -239 20 -325 -6 -60 -11 -73 -40
-100 -17 -16 -40 -42 -50 -58 -14 -21 -20 -25 -31 -16 -8 6 -21 9 -29 5 -21
-8 -20 -6 25 61 41 62 84 153 72 153 -4 0 -40 -20 -81 -45 -41 -24 -78 -42
-82 -39 -5 3 -9 19 -9 35 0 23 14 44 58 90 48 49 122 167 122 194 0 4 -18 -9
-40 -29 -47 -43 -168 -104 -193 -98 -29 6 -13 49 37 102 55 59 62 72 82 161
23 105 53 144 81 107z m-963 -169 c17 -11 56 -26 86 -35 30 -8 118 -36 195
-61 126 -41 147 -45 211 -41 60 4 83 11 147 46 89 49 99 51 66 16 l-24 -26 25
6 c16 4 11 -1 -15 -16 -40 -22 -40 -22 -14 -28 l27 -5 -36 -97 c-22 -58 -40
-94 -45 -89 -6 6 -39 -9 -82 -35 -99 -60 -108 -59 -145 20 -33 70 -79 117
-144 146 -93 43 -280 110 -307 110 -30 0 -107 -27 -253 -88 -115 -47 -176
-104 -200 -183 -9 -30 -24 -65 -35 -78 l-18 -24 -35 21 c-19 12 -48 40 -65 64
-79 111 -143 211 -143 224 0 8 10 14 25 14 25 0 24 2 -17 41 -46 44 -34 46 31
5 23 -15 53 -45 67 -69 35 -55 103 -117 130 -117 25 0 34 23 34 86 0 59 25 76
175 119 72 21 151 49 176 61 46 23 109 84 109 107 1 7 11 -8 22 -32 12 -24 35
-52 52 -62z m-903 -78 l66 -49 21 -85 c26 -103 26 -97 6 -97 -33 0 -102 69
-134 134 -32 64 -51 146 -34 146 5 0 39 -22 75 -49z m-72 -187 c25 -15 47 -28
48 -28 7 -5 53 -209 48 -214 -18 -19 -133 138 -149 203 -4 17 -9 38 -12 48 -7
24 12 21 65 -9z m147 -70 c27 -9 54 -22 60 -28 6 -6 37 -76 69 -156 32 -80 69
-167 82 -193 13 -27 28 -59 33 -73 9 -22 8 -24 -9 -15 -27 15 -141 146 -193
223 -61 90 -127 258 -101 258 5 0 32 -7 59 -16z m1135 -4 c37 -17 48 -47 55
-145 7 -83 7 -84 -23 -113 -64 -64 -226 -67 -295 -5 -36 32 -68 113 -68 174 0
63 12 80 70 98 45 13 227 8 261 -9z m-427 -4 c47 -20 59 -57 54 -167 -6 -118
-11 -123 -126 -115 -114 8 -191 39 -215 86 -23 44 -19 145 6 184 17 26 19 26
133 26 75 0 126 -5 148 -14z m862 -112 c-44 -126 -65 -165 -122 -220 -46 -43
-63 -54 -90 -54 -31 0 -34 3 -33 28 0 15 26 77 58 137 l57 110 75 37 c41 20
75 35 76 34 2 -2 -8 -34 -21 -72z m-1640 -85 c25 -6 49 -19 53 -28 16 -29 189
-431 186 -431 -1 0 -29 35 -61 78 -32 42 -80 102 -107 132 -41 47 -93 143
-130 243 -8 20 -1 21 59 6z m1714 -89 c-41 -103 -139 -224 -229 -282 -89 -56
-83 -34 39 151 73 112 107 154 127 161 16 5 39 16 53 23 14 7 26 10 28 6 1 -3
-7 -30 -18 -59z m-489 -125 c54 -29 72 -108 50 -225 -14 -69 -35 -80 -153 -80
-120 0 -151 13 -179 73 -21 47 -25 140 -9 199 12 41 21 45 130 52 75 4 127 -2
161 -19z m-478 4 c26 -7 44 -21 57 -42 37 -60 20 -179 -32 -222 -27 -23 -35
-24 -106 -19 -42 4 -92 13 -111 22 -92 42 -132 206 -63 258 21 17 200 19 255
3z m2861 -336 c3 -10 14 -74 26 -143 11 -69 23 -133 26 -142 3 -10 1 -18 -4
-18 -6 0 -77 -11 -158 -25 -327 -54 -650 -96 -1089 -141 -50 -5 -65 -12 -92
-39 -40 -40 -40 -39 -12 -338 22 -242 27 -259 86 -283 37 -16 26 -17 408 27
266 30 702 92 957 135 42 7 35 24 68 -156 22 -122 25 -160 13 -160 -5 0 -48
-7 -98 -15 -278 -46 -614 -94 -835 -119 -485 -56 -572 -63 -655 -47 -122 23
-221 91 -273 188 -38 71 -45 124 -67 495 -13 205 -14 280 -6 320 32 149 163
270 322 298 30 5 131 16 224 25 300 29 873 105 1043 139 94 19 110 19 116 -1z
m-5372 -18 c273 -43 434 -65 868 -115 47 -5 165 -17 264 -25 98 -8 197 -20
219 -26 113 -30 218 -116 265 -217 25 -53 27 -65 26 -183 -3 -173 -23 -520
-35 -598 -13 -80 -38 -131 -95 -188 -70 -69 -156 -105 -269 -111 -195 -10
-993 80 -1542 174 -77 13 -93 19 -93 34 0 10 9 71 20 137 12 65 39 224 61 353
22 129 56 327 75 440 38 220 53 318 54 338 0 16 5 16 182 -13z m2215 -202 l83
-6 -7 -492 -6 -493 124 -7 c113 -6 683 6 1020 22 l136 6 9 -162 9 -161 -30 -1
c-16 -1 -41 -3 -55 -5 -14 -1 -171 -7 -350 -13 -376 -12 -687 -14 -1030 -4
l-243 6 7 256 c4 140 9 258 10 261 2 3 9 178 16 390 6 212 13 391 15 398 5 14
150 17 292 5z m416 -1600 l14 -48 54 -5 53 -5 -41 -33 -42 -33 15 -41 c21 -60
18 -62 -30 -27 l-45 32 -42 -34 c-47 -37 -44 -42 -24 47 6 28 3 34 -36 62
l-43 32 56 0 56 0 17 50 c9 28 18 50 21 50 2 0 10 -21 17 -47z m1356 -27 c12
-19 19 -40 16 -47 -3 -8 -31 -32 -62 -53 -39 -28 -60 -36 -70 -30 -22 14 -53
68 -45 80 13 20 107 84 124 84 9 0 26 -15 37 -34z m-1435 -392 c9 -3 16 -13
16 -21 0 -11 -9 -13 -45 -7 -52 7 -58 -4 -15 -30 21 -12 40 -15 60 -11 23 5
30 3 30 -9 0 -9 -4 -16 -10 -16 -18 0 -11 -17 13 -29 20 -10 18 -11 -13 -6
-19 3 -42 5 -50 5 -77 -2 -115 2 -122 13 -12 18 -10 26 11 44 11 9 17 22 14
30 -13 33 58 57 111 37z"/>
<path d="M4730 5454 c-30 -8 -65 -17 -77 -19 -14 -3 -46 -40 -86 -98 -175
-251 -286 -494 -352 -773 -28 -120 -61 -341 -51 -351 7 -7 101 -21 371 -53
287 -35 346 -40 455 -39 127 1 149 -4 -369 84 -211 36 -388 68 -393 71 -11 7
-10 31 1 39 5 3 99 -4 208 -15 109 -11 266 -27 348 -35 83 -8 192 -20 243 -26
52 -6 96 -9 98 -7 2 3 -78 26 -179 52 -100 26 -202 54 -227 61 -25 7 -135 36
-245 65 -203 54 -240 69 -217 92 10 10 37 8 130 -11 246 -48 625 -122 762
-147 25 -5 -221 87 -619 232 -117 43 -215 84 -218 92 -3 7 -1 18 4 23 6 6 161
-34 434 -112 233 -67 431 -123 439 -125 18 -5 -66 37 -200 100 -253 119 -331
156 -334 156 -7 0 -262 123 -273 132 -15 12 -6 38 13 38 12 0 285 -104 698
-266 76 -30 140 -53 142 -52 1 2 -171 105 -383 228 -212 123 -388 230 -390
238 -3 7 0 19 6 25 9 9 38 -1 124 -45 377 -192 617 -307 617 -295 0 8 -35 38
-77 69 -43 30 -187 132 -321 227 -134 95 -246 180 -249 188 -3 8 -1 19 5 25 7
7 69 -25 209 -110 109 -66 200 -119 202 -116 2 2 -3 12 -11 21 -9 10 -31 48
-50 85 -29 58 -50 81 -141 159 -60 50 -106 96 -104 103 8 24 39 15 104 -33 37
-27 69 -48 70 -47 1 1 -1 42 -5 91 -7 87 -8 90 -32 91 -14 1 -50 -4 -80 -12z"/>
<path d="M7965 5458 c-5 -19 -17 -178 -12 -178 2 0 32 22 68 50 66 52 93 61
103 35 3 -10 -29 -44 -104 -107 -88 -75 -114 -103 -131 -142 -12 -28 -32 -68
-46 -89 -14 -22 -21 -37 -16 -34 4 2 95 57 201 122 148 90 196 115 205 106 8
-8 9 -16 1 -28 -6 -9 -150 -115 -320 -236 -264 -187 -339 -247 -310 -247 4 0
166 80 361 177 269 135 357 175 366 166 6 -6 9 -18 7 -25 -3 -7 -179 -114
-391 -238 -212 -123 -384 -226 -383 -228 2 -1 66 22 142 52 434 171 689 267
703 264 34 -7 14 -34 -49 -65 -36 -17 -221 -105 -412 -194 -191 -89 -347 -164
-345 -165 1 -1 197 54 436 122 338 97 436 122 447 113 24 -19 1 -34 -124 -79
-64 -23 -144 -52 -177 -65 -33 -12 -96 -35 -140 -51 -125 -43 -421 -153 -414
-154 4 0 73 13 155 29 82 17 232 46 334 65 102 20 236 46 298 58 99 20 114 21
122 8 6 -10 5 -19 -3 -26 -7 -7 -127 -42 -267 -79 -140 -37 -331 -87 -425
-112 -93 -25 -172 -47 -175 -50 -3 -3 18 -3 45 0 28 4 120 13 205 22 142 14
249 25 538 55 56 6 107 8 112 5 12 -8 13 -32 2 -39 -5 -3 -182 -35 -393 -71
-211 -35 -404 -69 -429 -75 -74 -16 256 -4 400 15 69 8 197 25 285 36 231 29
208 18 200 97 -36 344 -166 706 -360 997 -109 163 -98 153 -204 175 -111 24
-101 23 -106 8z"/>
<path d="M3936 3674 c-3 -16 -13 -78 -21 -139 -21 -154 -65 -446 -70 -472 -6
-28 -20 -25 410 -79 201 -25 587 -64 635 -64 58 0 105 28 118 72 6 18 18 140
28 270 13 181 15 243 6 262 -21 47 -54 58 -205 72 -213 20 -652 72 -853 100
-40 6 -42 5 -48 -22z"/>
</g>
</svg>
