<?xml version="1.0" standalone="no"?>
<!DOCTYPE svg PUBLIC "-//W3C//DTD SVG 20010904//EN"
 "http://www.w3.org/TR/2001/REC-SVG-20010904/DTD/svg10.dtd">
<svg version="1.0" xmlns="http://www.w3.org/2000/svg"
 width="1280.000000pt" height="989.000000pt" viewBox="0 0 1280.000000 989.000000"
 preserveAspectRatio="xMidYMid meet">
<metadata>
Created by potrace 1.16, written by Peter Selinger 2001-2019
</metadata>
<g transform="translate(0.000000,989.000000) scale(0.100000,-0.100000)"
fill="#000000" stroke="none">
<path d="M6350 8283 c-8 -3 -28 -17 -43 -29 -16 -13 -35 -24 -43 -24 -30 0
-197 -80 -278 -134 -134 -89 -190 -170 -221 -318 -11 -50 -27 -90 -53 -128
-20 -30 -43 -66 -50 -80 -18 -32 -17 -102 1 -137 13 -24 12 -29 -9 -61 -46
-67 -53 -124 -28 -214 20 -70 72 -134 138 -169 44 -23 46 -26 46 -67 0 -23 7
-59 15 -79 10 -25 15 -71 15 -152 0 -110 -1 -117 -23 -127 -12 -6 -67 -34
-122 -62 -55 -28 -123 -58 -152 -66 l-51 -14 -59 37 c-108 70 -167 85 -338 85
-115 1 -163 -3 -207 -17 -71 -22 -120 -22 -189 0 -39 13 -88 17 -179 17 -109
-1 -134 -4 -192 -26 -38 -14 -68 -24 -68 -21 0 2 13 30 29 62 16 32 46 109 66
172 73 228 114 313 201 409 29 32 43 40 60 36 12 -3 46 -1 75 4 49 9 55 8 78
-14 43 -40 69 -48 140 -45 50 3 72 -1 91 -14 38 -27 82 -21 150 19 62 37 100
76 100 100 0 8 4 14 9 14 17 0 59 51 64 79 6 29 -41 239 -62 279 -20 38 -50
45 -241 53 -212 10 -343 0 -495 -37 -134 -33 -165 -49 -275 -150 -52 -48 -160
-141 -240 -208 -325 -272 -433 -385 -524 -541 -57 -99 -90 -192 -111 -315 -9
-52 -26 -130 -37 -172 -13 -51 -18 -90 -14 -113 10 -51 67 -110 125 -130 79
-26 161 -81 252 -170 95 -94 175 -139 308 -174 41 -10 86 -29 100 -40 56 -45
119 -77 207 -106 l92 -31 -64 -99 c-200 -309 -335 -689 -374 -1049 -6 -55 -12
-101 -14 -103 -4 -5 -347 51 -419 68 -26 6 -50 9 -53 6 -3 -2 -13 -51 -24
-108 -10 -57 -51 -270 -90 -474 -72 -375 -91 -474 -114 -600 -8 -38 -30 -157
-51 -263 -20 -107 -34 -196 -32 -199 8 -7 68 -21 167 -37 47 -8 150 -26 230
-40 193 -33 516 -79 778 -111 l214 -26 91 -93 c306 -312 704 -544 1127 -656
238 -62 338 -74 635 -74 250 0 281 2 415 26 524 97 971 329 1332 693 l107 108
153 18 c427 51 1183 171 1203 191 3 2 -30 181 -71 398 -41 217 -81 427 -88
465 -7 39 -44 231 -82 428 l-68 359 -30 -6 c-81 -17 -422 -75 -438 -76 -4 0
-9 19 -12 43 -36 274 -73 444 -136 612 -77 205 -143 338 -246 498 -35 54 -64
99 -64 101 0 2 30 11 68 21 82 22 169 65 216 106 25 22 59 36 113 50 130 32
214 80 325 185 68 64 119 103 169 128 40 20 77 36 84 36 6 0 30 16 53 35 58
51 70 121 37 216 -9 23 -18 67 -21 98 -18 164 -96 356 -201 496 -76 100 -165
186 -403 386 -102 86 -228 195 -280 243 -52 47 -114 95 -136 106 -59 29 -165
57 -264 70 -100 12 -490 12 -546 0 -60 -14 -78 -44 -109 -176 -33 -140 -27
-179 30 -214 19 -12 35 -26 35 -31 0 -18 74 -91 111 -110 47 -24 87 -24 119
-2 18 13 42 16 100 14 74 -2 79 -1 121 32 44 33 45 33 124 28 l79 -6 53 -65
c68 -84 111 -174 163 -340 23 -74 57 -166 75 -205 18 -38 32 -71 31 -72 -1 -1
-31 10 -66 25 -59 24 -77 27 -190 27 -107 0 -135 -3 -191 -24 l-67 -24 -83 23
c-70 20 -108 24 -229 24 -168 0 -256 -20 -347 -80 -29 -19 -57 -34 -62 -34
-15 0 -232 88 -289 118 l-53 27 -1 115 c-1 71 3 124 10 137 7 12 15 49 19 82
6 59 7 61 49 81 124 61 187 238 126 357 -12 23 -26 44 -32 48 -6 4 -5 17 5 35
21 40 19 113 -4 158 -11 21 -42 59 -69 86 -41 40 -51 57 -62 104 -6 32 -26 84
-43 116 -62 116 -242 265 -398 329 -30 12 -70 32 -90 45 -35 21 -86 27 -119
15z m103 -153 c56 0 79 -28 75 -93 l-3 -52 -135 -5 c-74 -3 -135 -5 -135 -5
-1 0 2 34 5 75 l5 75 55 6 c30 3 64 5 75 3 11 -2 37 -4 58 -4z m142 -241 c132
-40 250 -114 373 -230 71 -68 108 -114 56 -69 -16 14 -33 29 -39 35 -31 32
-138 116 -185 147 -320 206 -627 163 -970 -133 -68 -59 -79 -66 -64 -39 22 36
113 117 191 167 112 71 254 130 358 147 62 9 211 -3 280 -25z m-43 -48 c98
-25 196 -75 294 -150 102 -77 204 -175 204 -194 0 -18 -46 -57 -67 -57 -7 0
-27 21 -43 48 -16 26 -38 56 -50 67 -11 12 -20 28 -20 38 0 9 -6 17 -12 17 -7
0 -19 4 -27 9 -13 8 -13 12 0 27 12 15 12 16 -7 10 -15 -5 -24 -2 -28 9 -3 9
-10 14 -14 11 -5 -3 -21 4 -38 15 -238 162 -504 157 -759 -14 -97 -65 -144
-128 -145 -193 0 -72 -44 -82 -75 -17 -16 34 -16 35 7 60 141 155 359 293 508
322 79 16 193 12 272 -8z m-205 -230 c51 -20 51 -20 106 -1 30 11 74 22 98 25
l44 6 -50 -20 c-49 -20 -111 -68 -101 -78 3 -3 19 0 37 6 27 9 29 9 19 -3 -10
-13 4 -14 97 -10 117 6 141 -1 174 -46 11 -14 22 -40 25 -57 6 -31 5 -33 -23
-33 -42 0 -131 -28 -180 -56 -46 -27 -73 -23 -107 15 -19 20 -19 37 -1 111 6
24 6 24 -10 5 -8 -11 -21 -37 -27 -58 -8 -26 -18 -39 -35 -43 -36 -10 -49 1
-77 62 -26 57 -46 72 -26 20 17 -47 12 -89 -15 -109 -35 -25 -54 -24 -117 6
-31 15 -81 33 -112 39 -51 11 -58 10 -83 -8 -15 -11 -29 -27 -31 -35 -4 -12
-3 -12 10 -1 14 11 16 7 20 -28 2 -22 -1 -41 -7 -44 -12 -4 91 -36 119 -36 15
0 10 -7 -22 -31 -53 -39 -53 -45 -2 -19 l41 21 -16 -30 c-8 -17 -15 -49 -15
-72 0 -40 -1 -41 -27 -34 -58 14 -114 95 -106 151 3 17 -2 48 -11 68 -23 54
-20 107 9 172 19 42 21 55 10 50 -29 -11 -14 10 26 36 55 36 128 52 206 45 75
-6 72 5 -7 27 l-55 16 85 -4 c53 -3 105 -12 137 -25z m-1170 -47 c24 -7 24 -8
56 -149 15 -70 11 -95 -17 -95 -15 0 -55 123 -58 180 -3 44 -4 45 -38 48 -31
3 -33 2 -17 -10 17 -12 58 -165 61 -227 1 -27 -28 -51 -44 -35 -5 5 -21 57
-35 114 -15 58 -29 108 -33 111 -4 4 -20 9 -37 13 l-30 6 26 -23 c17 -16 28
-38 32 -68 4 -24 13 -66 20 -94 15 -53 10 -83 -16 -99 -26 -16 -35 2 -53 99
-10 52 -26 102 -37 117 -11 15 -22 26 -24 24 -2 -2 6 -49 17 -105 22 -107 23
-142 3 -148 -13 -5 -29 25 -58 108 l-17 46 -81 -19 c-45 -11 -105 -20 -134
-20 -50 0 -134 29 -147 50 -4 6 -12 9 -19 6 -7 -2 -17 9 -24 26 -10 27 -16 30
-52 30 -71 0 -63 31 15 55 159 50 262 64 494 64 124 1 235 -2 247 -5z m3053
-22 c186 -49 184 -48 251 -120 35 -37 128 -123 208 -191 81 -68 171 -144 201
-170 215 -182 318 -304 385 -454 41 -93 41 -97 2 -97 -21 0 -50 -11 -73 -26
-84 -57 -141 -66 -265 -40 -83 18 -138 46 -196 99 -86 79 -116 155 -158 398
-28 165 -57 285 -79 328 -19 36 -44 57 -98 81 -26 11 -56 33 -67 48 -16 21
-20 23 -21 9 0 -10 -6 -17 -13 -15 -8 2 -29 -14 -49 -34 -42 -45 -81 -49 -161
-17 -29 12 -81 33 -116 48 -35 14 -76 38 -91 53 -17 17 -44 30 -69 34 -32 5
-39 10 -31 19 14 17 -8 25 -68 25 -43 1 -46 2 -28 15 27 21 18 25 -34 15 -48
-9 -63 -5 -40 11 9 6 115 8 275 6 220 -4 272 -8 335 -25z m-3885 -317 c0 -22
-4 -51 -9 -64 l-8 -24 36 21 c35 21 50 16 21 -8 -46 -38 -89 -157 -100 -275
-12 -124 -47 -243 -105 -351 -42 -78 -74 -112 -135 -140 -71 -34 -138 -32
-196 4 -102 66 -152 143 -152 237 0 115 51 177 403 486 173 152 185 160 220
156 22 -2 25 -7 25 -42z m1951 -36 c91 -32 112 -33 187 -5 87 33 130 34 162 1
25 -24 35 -52 14 -39 -8 4 -9 -1 -3 -17 5 -13 9 -41 8 -63 0 -43 -30 -76 -68
-76 l-21 1 23 19 c12 10 25 32 28 49 5 25 1 36 -24 61 -41 41 -76 40 -124 -5
-40 -36 -47 -64 -26 -109 10 -22 13 -24 22 -10 10 13 16 14 41 2 35 -15 125
-100 125 -117 0 -8 -20 -10 -67 -6 -65 5 -67 4 -38 -9 17 -9 36 -15 43 -16 15
0 132 -58 132 -65 0 -3 -12 1 -27 8 -74 38 -148 51 -283 52 -158 0 -232 -18
-342 -85 -37 -22 -69 -40 -73 -40 -3 0 -3 12 1 28 20 90 71 169 128 196 55 26
201 65 204 55 7 -17 23 -9 33 18 15 41 2 78 -40 107 -47 33 -71 33 -110 0 -40
-33 -42 -75 -5 -109 24 -22 25 -25 8 -25 -53 0 -87 68 -65 130 6 18 6 28 1 25
-20 -12 -9 17 15 40 30 31 63 32 141 4z m253 -395 c63 -15 186 -72 177 -81 -2
-3 -17 2 -33 10 -16 9 -55 22 -87 30 -53 14 -57 14 -50 -1 4 -9 13 -41 21 -70
13 -46 12 -59 -1 -106 -10 -33 -29 -66 -51 -89 -44 -45 -26 -48 39 -6 27 16
50 28 53 26 2 -3 -23 -34 -56 -69 -73 -79 -152 -122 -196 -109 -56 16 -110 49
-155 95 -24 25 -47 46 -51 46 -3 0 -4 -12 -1 -27 5 -26 4 -27 -14 -13 -44 33
-88 88 -110 135 -42 88 -32 112 74 174 113 66 301 89 441 55z m-606 -326 c41
-53 44 -63 34 -100 -15 -55 -133 -94 -211 -68 -45 14 -58 38 -48 85 6 32 15
40 97 84 50 27 91 49 91 48 1 -1 18 -23 37 -49z m872 -2 c-10 -25 -24 -51 -31
-57 -8 -6 -14 -16 -14 -22 0 -16 68 53 92 93 12 19 22 36 23 37 1 2 53 -24
116 -56 63 -32 146 -71 186 -87 40 -15 69 -32 66 -37 -4 -6 -59 -8 -142 -4
-147 5 -179 -1 -216 -43 -28 -31 -72 -52 -125 -61 -54 -8 -83 2 -105 34 -14
23 -14 28 1 66 9 22 20 41 24 41 14 0 119 110 126 132 3 11 8 17 11 14 3 -2
-3 -25 -12 -50z m-2092 -40 c86 -41 159 -113 203 -199 48 -96 8 -139 -121
-131 -302 19 -429 63 -487 169 -30 54 -37 120 -15 147 10 14 62 34 132 52 11
3 64 3 117 1 87 -3 105 -7 171 -39z m3722 16 c28 -11 81 -38 120 -61 38 -23
79 -41 91 -41 22 0 44 -15 138 -90 48 -38 53 -45 35 -48 -15 -3 -37 11 -71 45
-40 39 -50 45 -58 33 -5 -8 -10 -24 -10 -35 0 -21 -17 -45 -32 -45 -4 0 -8 17
-8 38 0 21 -3 42 -7 45 -3 4 -32 -18 -64 -48 -32 -31 -74 -62 -93 -70 -62 -26
-208 -46 -376 -51 -147 -5 -169 -4 -200 13 -42 22 -44 47 -7 126 48 100 146
177 266 207 61 15 219 5 276 -18z m-3390 9 c3 -6 17 -6 36 1 52 18 167 5 237
-26 34 -16 60 -31 58 -33 -2 -3 -35 -7 -71 -9 -37 -3 -81 -11 -98 -19 -30 -12
-25 -13 78 -14 61 -1 134 -8 163 -15 70 -19 155 -71 199 -121 46 -51 86 -138
78 -165 -8 -26 -61 -53 -144 -73 -35 -9 -66 -19 -69 -22 -15 -15 133 3 251 31
50 12 67 20 63 30 -4 10 4 14 27 14 36 0 57 15 57 40 0 18 -48 42 -119 60 -43
11 -91 48 -91 70 0 6 8 9 18 6 38 -12 121 -25 202 -31 105 -8 180 -13 200 -14
10 -1 8 -6 -8 -17 -12 -8 -22 -19 -22 -23 0 -10 74 1 121 19 30 11 39 10 67
-4 18 -9 32 -14 32 -11 0 3 -18 41 -40 85 -22 44 -38 80 -34 80 37 0 90 -96
121 -217 15 -59 15 -66 0 -81 -19 -19 -43 -19 -207 -2 -77 8 -123 9 -135 3
-16 -10 5 -16 268 -84 45 -12 51 -39 8 -39 -44 0 -46 -17 -3 -24 77 -12 78
-14 86 -213 9 -231 1 -263 -87 -347 l-61 -58 -155 4 c-86 3 -164 8 -173 13
-10 4 -18 16 -18 28 0 53 -87 79 -124 38 -24 -26 -49 -17 -107 40 -63 61 -63
72 -1 63 56 -8 50 4 -15 25 -44 15 -49 20 -70 74 -12 33 -34 75 -49 94 -14 19
-24 37 -21 40 3 3 43 25 89 49 95 50 91 51 -82 29 l-115 -16 -27 33 c-15 18
-50 71 -78 118 -28 47 -58 95 -66 108 -15 21 -15 22 2 22 29 0 88 18 108 33
15 11 7 19 -79 72 -134 83 -175 119 -175 155 0 28 41 79 65 81 22 2 -42 17
-78 18 -36 1 -75 15 -87 31 -3 4 -13 11 -23 17 -16 8 -14 12 20 36 40 27 68
33 78 18z m2851 -7 c44 -9 81 -18 83 -20 7 -7 -93 -120 -211 -237 -65 -64
-118 -120 -118 -123 0 -4 -13 -22 -30 -40 -16 -19 -38 -64 -50 -102 -11 -37
-34 -91 -50 -119 l-30 -53 -53 0 c-28 0 -90 6 -137 14 -114 19 -151 24 -145
17 3 -3 45 -26 93 -51 102 -53 112 -73 64 -124 -16 -17 -39 -50 -50 -72 -17
-34 -31 -45 -78 -65 -63 -25 -61 -35 5 -20 51 11 51 6 6 -75 -32 -57 -84 -114
-105 -114 -5 0 -15 -3 -24 -6 -12 -5 -16 0 -16 17 0 34 -28 59 -68 59 -44 0
-72 -24 -72 -62 0 -27 -1 -28 -54 -28 -74 0 -201 18 -258 36 -111 36 -133 79
-153 296 -14 149 -14 167 1 215 26 81 80 126 180 148 131 29 122 37 -33 31
l-143 -6 0 39 c0 22 -7 52 -16 68 -16 27 -15 31 24 115 39 85 41 87 104 119
47 23 59 27 47 13 -8 -11 -48 -56 -87 -102 -40 -45 -72 -84 -72 -86 0 -1 24 5
53 15 34 11 99 19 187 22 74 3 177 11 228 17 52 7 96 9 99 6 3 -3 3 -16 -1
-30 -5 -20 -19 -29 -77 -47 -84 -27 -115 -48 -106 -74 6 -15 16 -17 82 -10 74
7 77 6 153 -32 76 -38 78 -38 197 -38 81 0 128 4 143 13 34 20 16 35 -81 67
-125 42 -159 84 -122 155 17 33 82 88 139 119 56 29 141 44 208 37 32 -3 58
-3 58 -1 0 3 -18 12 -40 21 -45 18 -50 37 -18 71 20 22 29 23 144 23 73 0 153
-6 200 -16z m-3781 -222 c20 -46 34 -86 31 -90 -3 -3 -53 -6 -110 -6 -102 -1
-105 0 -142 30 -50 40 -52 51 -12 59 42 9 114 46 153 79 17 13 33 21 37 18 3
-4 23 -45 43 -90z m5241 14 c3 -7 -2 -30 -10 -50 -23 -54 -86 -80 -179 -73
-70 5 -112 26 -91 47 5 5 47 20 94 34 47 14 103 31 125 39 53 19 55 19 61 3z
m-5129 -187 c60 -55 134 -87 263 -114 101 -22 171 -50 265 -109 l39 -24 -39
-10 c-143 -38 -177 -44 -250 -43 -59 0 -108 9 -181 30 -85 25 -104 35 -136 70
-21 22 -38 45 -38 50 0 6 14 26 30 44 30 35 30 35 8 41 -13 3 -36 6 -52 6 -25
0 -27 2 -15 17 13 15 11 16 -19 10 -18 -4 -84 -12 -146 -18 -102 -11 -115 -10
-140 6 -42 28 -18 41 87 49 50 4 121 13 157 20 107 22 118 21 167 -25z m4847
25 c9 -23 7 -67 -4 -84 -11 -17 -111 -17 -197 1 -78 16 -143 73 -70 63 17 -3
66 4 107 15 97 24 156 26 164 5z m-469 -115 c123 -32 126 -87 8 -141 -160 -72
-290 -95 -422 -74 -119 20 -166 33 -182 52 -12 15 -8 22 30 55 74 66 152 98
261 108 139 12 259 12 305 0z m-568 -13 c-10 -8 -66 -26 -125 -40 -149 -36
-202 -38 -202 -8 0 39 79 57 275 60 61 1 68 0 52 -12z m-2922 -306 c22 -43 22
-69 -4 -133 -19 -45 -28 -57 -45 -57 -39 0 -86 65 -86 120 0 41 14 66 48 84
43 24 70 20 87 -14z m2647 -11 c35 -43 53 -132 41 -204 -7 -39 -14 -53 -36
-65 -26 -14 -29 -14 -45 6 -9 11 -28 75 -42 142 -24 119 -24 121 -5 142 26 28
52 22 87 -21z m-152 -91 c28 -19 38 -36 58 -106 25 -82 25 -82 6 -118 -10 -20
-34 -49 -53 -66 -28 -24 -40 -29 -65 -24 -44 9 -63 39 -75 123 -18 121 -15
150 18 184 35 35 67 37 111 7z m-2322 -4 c57 -40 68 -124 33 -253 -22 -80 -31
-98 -54 -111 -25 -14 -30 -13 -65 6 -58 33 -95 115 -95 207 0 113 38 167 118
167 22 0 51 -7 63 -16z m-423 -122 c1 -93 5 -131 23 -187 42 -129 112 -234
257 -385 77 -80 78 -82 95 -177 21 -119 73 -249 157 -391 66 -113 78 -166 43
-197 -20 -18 -35 -20 -132 -18 -190 4 -866 74 -1145 119 -42 6 -43 7 -43 45 0
142 73 460 150 655 89 224 302 578 355 588 90 18 175 39 200 51 17 7 32 14 35
14 3 1 5 -52 5 -117z m3160 77 c39 -10 83 -19 99 -19 37 0 72 -37 161 -171
207 -310 342 -689 372 -1044 l6 -72 -79 -11 c-174 -25 -226 -32 -389 -51 -206
-24 -560 -57 -710 -66 -104 -7 -111 -6 -139 16 -25 20 -28 27 -23 68 3 31 19
69 47 116 77 124 129 245 158 365 16 63 34 126 41 139 7 13 53 66 101 117 48
51 105 119 126 151 78 117 133 316 120 436 -6 58 -5 59 17 52 12 -3 54 -15 92
-26z m-602 -209 c54 -166 78 -370 58 -490 -9 -54 -16 -69 -45 -95 -19 -16 -39
-40 -46 -53 -9 -19 -14 -21 -26 -12 -7 7 -21 10 -29 6 -21 -8 -20 -5 24 61 21
32 49 81 63 109 28 61 26 61 -76 -2 -38 -24 -73 -41 -78 -38 -4 3 -8 20 -8 37
0 26 12 43 58 89 49 48 122 165 122 194 0 4 -15 -6 -32 -23 -18 -17 -63 -47
-99 -67 -121 -66 -158 -37 -70 57 60 65 67 79 86 169 28 131 67 154 98 58z
m-976 -124 c21 -13 74 -33 118 -45 44 -11 127 -36 184 -56 156 -52 245 -46
359 26 53 33 81 39 39 7 -20 -14 -25 -23 -16 -28 8 -6 3 -13 -17 -24 l-29 -15
28 -1 c15 0 27 -5 27 -12 0 -7 -14 -49 -31 -94 -22 -59 -36 -82 -48 -82 -9 1
-46 -18 -83 -41 -92 -56 -101 -55 -138 23 -50 105 -82 126 -317 216 -150 57
-134 57 -308 -14 -195 -80 -251 -122 -277 -208 -13 -47 -46 -108 -57 -108 -12
0 -70 46 -89 71 -51 65 -152 223 -152 236 0 11 7 14 25 11 14 -3 25 -4 25 -2
0 2 -21 24 -47 49 l-48 46 59 -33 c43 -24 68 -47 92 -84 37 -58 102 -114 132
-114 22 0 32 25 32 86 0 58 24 74 175 119 72 21 151 49 176 61 46 23 108 84
110 107 0 7 9 -7 19 -30 11 -26 34 -51 57 -67z m-904 -79 c52 -36 59 -46 73
-96 8 -31 20 -69 25 -85 5 -16 9 -33 9 -37 0 -19 -35 -7 -76 26 -50 42 -114
160 -114 212 0 39 -3 39 83 -20z m-77 -183 c24 -14 46 -29 49 -34 9 -15 54
-204 50 -209 -18 -18 -134 141 -149 204 -4 17 -9 38 -12 48 -7 24 10 21 62 -9z
m174 -79 c29 -10 39 -21 59 -71 13 -32 56 -133 95 -223 39 -91 73 -170 74
-175 2 -6 -33 27 -77 74 -81 85 -151 179 -189 255 -19 37 -52 138 -52 157 0 9
32 3 90 -17z m1074 15 c62 -14 77 -36 89 -133 13 -106 4 -130 -56 -157 -90
-40 -192 -35 -252 12 -64 50 -101 212 -57 251 36 33 189 48 276 27z m-404 -10
c51 -14 70 -52 70 -137 0 -100 -14 -140 -50 -148 -76 -17 -247 23 -286 66 -26
29 -27 162 -1 202 17 27 19 27 125 27 59 0 123 -5 142 -10z m862 -150 c-34
-96 -43 -111 -102 -172 -53 -55 -72 -68 -97 -68 -18 0 -33 6 -36 14 -3 8 22
70 56 138 l62 123 75 36 c41 20 76 36 77 35 1 -1 -15 -49 -35 -106z m-1625
-51 c50 -13 53 -19 138 -224 18 -44 47 -114 64 -155 35 -83 35 -83 -34 10 -27
36 -68 87 -93 113 -58 63 -154 267 -126 267 3 0 26 -5 51 -11z m1723 -58 c-19
-68 -85 -168 -159 -242 -74 -73 -141 -114 -141 -85 0 22 199 316 217 322 10 3
34 13 53 23 19 9 36 17 37 16 2 -1 -2 -16 -7 -34z m-957 -161 c53 -26 69 -92
46 -185 -6 -24 -21 -53 -34 -65 -21 -19 -34 -22 -106 -21 -52 1 -94 7 -115 17
-97 46 -136 193 -68 253 26 22 33 23 138 19 65 -3 123 -10 139 -18z m456 5
c48 -24 64 -74 56 -173 -6 -70 -11 -89 -31 -108 -21 -22 -31 -24 -124 -24
-122 0 -153 13 -181 73 -33 75 -21 230 19 240 9 3 66 5 125 6 77 1 116 -3 136
-14z m2390 -367 c15 -78 41 -236 41 -252 0 -14 -9 -16 -165 -41 -391 -62 -727
-106 -1028 -135 -104 -10 -132 -20 -159 -54 -23 -28 -23 -91 2 -351 23 -227
25 -235 88 -262 36 -15 51 -14 417 28 228 26 692 92 947 135 36 6 37 6 43 -32
4 -22 13 -73 20 -114 8 -41 17 -96 21 -121 l6 -46 -74 -12 c-40 -6 -129 -20
-198 -31 -364 -58 -926 -128 -1170 -146 -268 -19 -441 106 -469 336 -17 144
-43 602 -36 650 10 73 59 163 120 218 74 68 155 99 292 112 258 24 563 59 738
85 201 29 431 65 475 74 79 15 78 16 89 -41z m-5387 17 c346 -55 870 -120
1183 -145 72 -6 153 -16 180 -24 119 -31 206 -104 257 -213 30 -63 31 -72 30
-185 -2 -198 -25 -568 -39 -628 -27 -114 -139 -222 -265 -256 -105 -27 -324
-13 -938 62 -304 38 -491 64 -697 100 -77 14 -93 19 -93 35 0 10 12 84 26 166
38 220 87 513 141 831 26 155 51 282 55 282 4 0 76 -11 160 -25z m2303 -207
c2 -2 0 -224 -4 -493 -4 -270 -5 -492 -3 -495 7 -9 734 -2 1005 10 147 7 269
11 271 9 2 -2 6 -74 10 -160 l7 -156 -68 -7 c-158 -15 -874 -27 -1240 -20
l-393 7 0 121 c1 66 5 204 10 306 5 102 14 334 20 515 6 182 14 341 16 354 l5
24 181 -6 c99 -3 182 -7 183 -9z m345 -1630 c0 -15 10 -18 58 -18 l57 -1 -25
-20 c-14 -12 -34 -27 -44 -35 -18 -12 -18 -15 -3 -56 10 -24 17 -47 17 -51 0
-3 -20 7 -44 24 l-44 31 -36 -27 c-43 -33 -53 -28 -37 16 17 48 14 55 -31 88
l-42 31 56 0 c56 0 56 0 69 38 6 20 14 41 17 47 7 11 31 -41 32 -67z m1345 11
c14 -17 24 -37 22 -43 -5 -15 -109 -95 -124 -96 -16 0 -63 69 -57 84 6 14 105
85 121 86 6 0 23 -14 38 -31z m-1437 -395 c38 -11 19 -29 -26 -26 -49 4 -55
-11 -13 -33 18 -9 41 -12 60 -9 33 7 45 -11 15 -23 -14 -5 -13 -9 7 -25 l24
-20 -30 7 c-16 3 -60 6 -96 5 -52 -1 -68 2 -72 14 -8 20 1 43 19 50 7 3 11 12
8 21 -14 36 40 56 104 39z"/>
<path d="M4750 5459 c-36 -10 -75 -18 -87 -18 -57 -2 -276 -358 -365 -595 -77
-205 -97 -293 -142 -613 -2 -14 3 -24 13 -27 30 -9 438 -60 651 -81 138 -14
339 -20 329 -10 -4 3 -502 91 -664 116 -221 34 -260 44 -260 64 0 25 -16 26
580 -35 271 -28 341 -34 335 -27 -3 2 -81 25 -175 50 -559 147 -682 180 -697
188 -10 5 -15 16 -11 24 6 17 16 16 148 -10 39 -8 153 -30 255 -50 102 -19
256 -49 343 -66 87 -17 161 -29 163 -26 2 2 -73 32 -168 66 -574 208 -683 249
-686 264 -5 25 10 26 78 7 152 -42 806 -231 820 -236 66 -23 -64 41 -410 201
-223 103 -410 192 -417 197 -19 15 -3 41 21 35 12 -3 68 -24 126 -47 122 -48
252 -98 365 -142 44 -17 100 -38 125 -48 130 -51 213 -80 217 -77 2 3 -76 51
-174 107 -509 295 -598 349 -601 364 -2 10 3 16 17 16 11 0 178 -79 372 -175
194 -96 354 -173 357 -170 13 13 -23 43 -203 170 -109 77 -252 178 -318 225
-66 47 -122 91 -125 97 -2 7 3 16 12 19 13 5 215 -110 396 -225 l24 -16 -27
45 c-16 25 -41 70 -57 100 -22 42 -53 75 -135 144 -58 49 -104 94 -102 100 8
24 36 14 107 -39 40 -30 74 -55 75 -55 1 0 -1 19 -6 43 -4 23 -8 67 -9 98 0
36 -5 58 -12 61 -7 3 -42 -3 -78 -13z"/>
<path d="M7953 5373 c-6 -54 -10 -99 -9 -100 0 0 35 23 76 53 41 30 80 54 87
54 35 0 3 -43 -90 -122 -94 -79 -106 -94 -149 -177 -26 -50 -45 -91 -43 -91 4
0 287 172 361 220 22 13 54 8 54 -9 0 -5 -62 -53 -137 -107 -76 -54 -183 -130
-238 -169 -237 -168 -264 -188 -270 -203 -3 -8 -4 -16 -3 -18 2 -1 165 78 363
176 256 126 364 174 373 167 25 -20 31 -15 -233 -167 -229 -131 -522 -304
-530 -312 -7 -7 -2 -8 15 -3 23 7 64 23 340 130 52 20 147 57 210 82 63 24
148 57 189 74 86 34 101 36 101 11 0 -15 -38 -36 -157 -92 -87 -41 -227 -107
-312 -147 -84 -40 -154 -73 -156 -73 -2 0 -54 -25 -116 -55 -63 -31 -105 -53
-94 -51 11 3 108 31 215 62 531 153 675 192 682 187 30 -18 -10 -40 -187 -104
-536 -195 -665 -242 -661 -246 2 -3 112 16 243 42 131 25 329 64 441 86 112
21 208 37 213 34 19 -12 8 -34 -23 -44 -18 -5 -105 -29 -193 -51 -88 -23 -189
-50 -225 -60 -36 -10 -148 -40 -250 -66 -102 -27 -178 -50 -169 -52 9 -2 131
9 270 23 140 14 324 32 409 40 85 9 167 18 181 21 28 5 53 -14 41 -33 -4 -6
-38 -16 -77 -22 -251 -39 -840 -142 -844 -148 -11 -11 303 6 469 26 245 30
419 52 470 60 l45 7 -2 68 c-5 142 -70 411 -144 599 -68 171 -169 352 -274
492 l-52 70 -74 14 c-41 7 -86 16 -100 18 -26 5 -26 5 -36 -94z"/>
<path d="M3936 3683 c-3 -10 -12 -67 -20 -128 -21 -148 -65 -442 -72 -482 -7
-39 -23 -34 231 -67 359 -47 731 -86 816 -86 64 0 105 26 118 78 18 69 45 494
33 524 -20 48 -53 60 -200 74 -213 21 -407 43 -654 75 -124 16 -231 29 -236
29 -6 0 -13 -8 -16 -17z"/>
</g>
</svg>
